<svg width="24" height="24" viewBox="0 0 24 24" fill="none" xmlns="http://www.w3.org/2000/svg">
<path fill-rule="evenodd" clip-rule="evenodd" d="M7.5 3C7.77614 3 8 3.22386 8 3.5V4H11.5V3.5C11.5 3.22386 11.7239 3 12 3C12.2761 3 12.5 3.22386 12.5 3.5V4H16V3.5C16 3.22386 16.2239 3 16.5 3C16.7761 3 17 3.22386 17 3.5V4H19.5C19.8978 4 20.2794 4.15803 20.5607 4.43934C20.842 4.72065 21 5.10218 21 5.5V9.32812C21.0196 9.38172 21.0303 9.43961 21.0303 9.5V17.8962C21.0361 18.2977 20.9628 18.6964 20.8146 19.0696C20.6659 19.444 20.4447 19.7854 20.1637 20.0742C19.8827 20.3629 19.5475 20.5934 19.1772 20.7522C18.807 20.9111 18.409 20.9953 18.0061 21L18.0003 21L5.98867 21C5.18125 20.9812 4.41403 20.6438 3.85425 20.0616C3.29543 19.4804 2.9886 18.7023 3.00032 17.8962L3 5.5C3 5.10218 3.15804 4.72064 3.43934 4.43934C3.72064 4.15804 4.10217 4 4.5 4H7V3.5C7 3.22386 7.22386 3 7.5 3ZM19.8536 5.14645C19.9473 5.24021 20 5.36739 20 5.5V9H4V5.5C4 5.36739 4.05268 5.24021 4.14645 5.14645C4.24022 5.05268 4.36739 5 4.5 5H7V6.5C7 6.77614 7.22386 7 7.5 7C7.77614 7 8 6.77614 8 6.5V5H11.5V6.5C11.5 6.77614 11.7239 7 12 7C12.2761 7 12.5 6.77614 12.5 6.5V5H16V6.5C16 6.77614 16.2239 7 16.5 7C16.7761 7 17 6.77614 17 6.5V5H19.5C19.6326 5 19.7598 5.05268 19.8536 5.14645ZM4.57508 19.3685C4.19824 18.9766 3.99168 18.4516 4.00032 17.9079V10H20.0303L20.0303 17.9L20.0304 17.9078C20.0346 18.179 19.9853 18.4484 19.8852 18.7005C19.7851 18.9526 19.6362 19.1824 19.447 19.3768C19.2579 19.5712 19.0322 19.7263 18.7829 19.8333C18.5345 19.9399 18.2675 19.9965 17.9972 20H6.00648C5.46495 19.9859 4.95066 19.7591 4.57508 19.3685Z" fill="#0062E1"/>
</svg>
